 <svg  version="1.0" xmlns="http://www.w3.org/2000/svg"  width="133.000000pt" height="142.000000pt" viewBox="0 0 133.000000 142.000000"  preserveAspectRatio="xMidYMid meet">  <g transform="translate(0.000000,142.000000) scale(0.100000,-0.100000)" fill="#f5f5f5" stroke="none"> <path d="M485 1376 c-130 -32 -242 -125 -300 -248 -18 -40 -36 -93 -39 -118 l-6 -45 18 56 c46 137 130 235 249 292 64 30 75 32 178 32 103 0 114 -2 178 -32 257 -122 335 -442 164 -665 -20 -27 -33 -48 -27 -48 15 0 87 100 109 153 32 75 44 171 31 252 -42 262 -300 434 -555 371z"/> <path d="M320 1349 c-92 -55 -186 -178 -220 -287 -25 -80 -26 -207 -4 -283 52 -175 189 -309 359 -354 320 -83 640 170 634 503 -1 56 -1 55 -15 -33 -28 -183 -124 -316 -281 -391 -68 -33 -88 -38 -173 -42 -151 -7 -249 28 -352 126 -102 97 -148 205 -148 348 0 101 25 188 79 271 35 54 56 75 141 143 33 25 24 25 -20 -1z"/> <path d="M524 1236 c-7 -30 -40 -37 -72 -17 -21 13 -28 13 -59 -4 -29 -16 -34 -23 -29 -46 6 -31 -21 -62 -51 -59 -34 4 -41 0 -53 -31 -10 -24 -10 -35 0 -53 16 -32 10 -59 -18 -71 -42 -18 -43 -81 -2 -102 30 -15 44 -57 24 -74 -31 -26 1 -89 46 -89 32 0 63 -30 54 -54 -6 -16 20 -56 37 -56 5 0 8 18 7 40 -1 30 -11 51 -40 87 -66 79 -73 98 -73 198 0 80 3 95 27 136 30 50 79 98 131 126 50 28 198 25 253 -4 59 -32 128 -113 145 -170 65 -222 -121 -422 -350 -377 -42 9 -39 21 4 16 l35 -4 0 66 c0 36 4 66 10 66 14 0 40 55 39 82 -1 17 -3 18 -6 6 -3 -11 -15 -19 -31 -19 -24 -2 -24 -2 -4 -6 25 -5 26 -7 12 -34 -6 -11 -21 -19 -35 -19 -15 0 -31 -10 -41 -25 -9 -14 -25 -25 -35 -25 -17 0 -19 -8 -19 -77 0 -75 0 -76 20 -58 26 24 68 13 76 -20 5 -22 12 -25 50 -25 38 0 44 3 50 24 7 31 50 43 73 21 23 -20 27 -19 63 6 22 16 28 27 24 42 -7 30 21 57 59 57 26 0 34 6 48 34 14 30 14 36 1 46 -28 24 -15 75 21 81 16 3 21 13 23 46 3 37 0 43 -25 55 -32 15 -43 58 -19 77 14 12 14 16 -1 45 -19 38 -29 45 -54 39 -30 -8 -59 24 -52 58 5 25 1 30 -31 45 -33 17 -37 17 -54 0 -24 -21 -67 -8 -77 23 -5 17 -15 21 -50 21 -39 0 -45 -3 -51 -24z"/> <path d="M513 1062 c10 -10 17 -23 17 -28 0 -5 29 -35 65 -67 36 -32 65 -54 65 -48 0 5 -12 19 -26 30 -26 21 -26 22 -9 41 23 26 24 26 63 -11 17 -16 32 -26 32 -20 0 5 -32 35 -72 65 -59 47 -78 56 -111 56 -38 0 -39 -1 -24 -18z"/> <path d="M457 1054 c-14 -14 -6 -21 23 -20 16 1 28 6 27 11 -4 12 -40 19 -50 9z"/> <path d="M450 964 c0 -50 2 -55 15 -44 11 9 19 10 27 2 15 -15 0 -34 -23 -27 -11 4 -19 2 -19 -4 0 -6 14 -11 30 -11 l30 0 0 71 c0 65 -1 70 -17 58 -13 -11 -17 -11 -20 -1 -11 30 -23 7 -23 -44z"/> <path d="M530 937 c0 -29 -5 -58 -12 -65 -9 -9 -9 -15 -1 -23 14 -14 45 -8 51 10 3 10 0 12 -14 7 -17 -6 -17 -5 1 14 21 23 22 74 3 98 -20 23 -28 12 -28 -41z"/> <path d="M636 981 c-8 -12 21 -34 34 -26 8 5 8 11 -1 21 -13 16 -25 18 -33 5z"/> <path d="M676 941 c-4 -6 0 -21 9 -34 8 -13 13 -31 10 -39 -3 -8 1 -20 9 -27 20 -17 56 2 56 29 0 20 -8 24 -45 21 -17 -2 -17 0 -5 8 11 8 12 15 4 28 -13 21 -30 27 -38 14z"/> <path d="M770 862 c0 -5 7 -17 15 -28 14 -18 14 -18 15 9 0 17 -5 27 -15 27 -8 0 -15 -4 -15 -8z"/> <path d="M447 843 c-14 -13 -6 -28 18 -40 21 -9 27 -8 35 6 15 28 -30 57 -53 34z"/> <path d="M680 816 c0 -14 27 -42 34 -35 2 2 0 14 -5 27 -9 24 -29 30 -29 8z"/> <path d="M415 780 c-3 -11 -3 -24 0 -30 11 -17 44 -11 55 10 9 17 8 20 -10 20 -11 0 -20 5 -20 10 0 18 -18 11 -25 -10z"/> <path d="M1010 486 c0 -14 5 -28 10 -31 6 -3 10 0 10 9 0 8 3 21 6 30 4 11 1 16 -10 16 -10 0 -16 -9 -16 -24z"/> <path d="M1060 494 c0 -8 -5 -12 -11 -8 -7 4 -10 -1 -7 -11 6 -33 28 -29 28 4 0 17 -2 31 -5 31 -3 0 -5 -7 -5 -16z"/> <path d="M1118 503 c6 -2 12 -16 12 -29 0 -15 4 -23 11 -19 6 4 8 14 4 23 -3 8 0 19 7 24 8 5 2 7 -17 7 -16 0 -24 -3 -17 -6z"/> <path d="M1170 480 c0 -35 3 -36 30 -13 27 24 25 43 -5 43 -21 0 -25 -5 -25 -30z"/> <path d="M1243 480 c12 -32 20 -29 32 10 7 22 6 23 -9 11 -10 -9 -16 -10 -16 -2 0 6 -4 11 -9 11 -5 0 -4 -13 2 -30z"/> <path d="M158 160 l3 -130 30 0 29 0 0 130 0 130 -32 0 -33 0 3 -130z"/> <path d="M255 210 l0 -80 33 0 32 0 0 80 0 80 -32 0 -33 0 0 -80z"/> <path d="M350 160 l0 -130 35 0 35 0 0 130 0 130 -35 0 -35 0 0 -130z"/> <path d="M450 260 l0 -30 130 0 130 0 0 30 0 30 -130 0 -130 0 0 -30z"/> <path d="M745 160 l0 -130 33 0 32 0 0 100 0 100 65 0 65 0 0 -100 0 -100 29 0 30 0 3 130 3 130 -130 0 -130 0 0 -130z"/> <path d="M450 163 l0 -33 80 0 80 0 0 33 0 32 -80 0 -80 0 0 -32z"/> <path d="M650 165 c0 -32 2 -35 30 -35 28 0 30 3 30 35 0 32 -2 35 -30 35 -28 0 -30 -3 -30 -35z"/> <path d="M846 193 c-3 -4 -6 -19 -6 -35 0 -25 3 -28 36 -28 34 0 35 1 32 32 -2 27 -7 33 -30 35 -14 1 -29 -1 -32 -4z"/> <path d="M257 93 c-4 -3 -7 -19 -7 -35 0 -25 3 -28 35 -28 33 0 35 2 35 35 0 32 -3 35 -28 35 -16 0 -32 -3 -35 -7z"/> <path d="M450 65 l0 -35 130 0 130 0 0 35 0 35 -130 0 -130 0 0 -35z"/> <path d="M840 65 c0 -33 2 -35 35 -35 33 0 35 2 35 35 0 33 -2 35 -35 35 -33 0 -35 -2 -35 -35z"/> </g> </svg> 